%TF.GenerationSoftware,KiCad,Pcbnew,9.0.1*%
%TF.CreationDate,2025-08-22T17:09:06+10:00*%
%TF.ProjectId,XCS remote,58435320-7265-46d6-9f74-652e6b696361,rev?*%
%TF.SameCoordinates,Original*%
%TF.FileFunction,Legend,Top*%
%TF.FilePolarity,Positive*%
%FSLAX46Y46*%
G04 Gerber Fmt 4.6, Leading zero omitted, Abs format (unit mm)*
G04 Created by KiCad (PCBNEW 9.0.1) date 2025-08-22 17:09:06*
%MOMM*%
%LPD*%
G01*
G04 APERTURE LIST*
%ADD10C,0.300000*%
%ADD11C,0.150000*%
%ADD12C,0.200000*%
%ADD13C,0.127000*%
G04 APERTURE END LIST*
D10*
X136454510Y-102529400D02*
X137597368Y-102529400D01*
X137025939Y-103100828D02*
X137025939Y-101957971D01*
D11*
X143538095Y-80907200D02*
X143680952Y-80954819D01*
X143680952Y-80954819D02*
X143919047Y-80954819D01*
X143919047Y-80954819D02*
X144014285Y-80907200D01*
X144014285Y-80907200D02*
X144061904Y-80859580D01*
X144061904Y-80859580D02*
X144109523Y-80764342D01*
X144109523Y-80764342D02*
X144109523Y-80669104D01*
X144109523Y-80669104D02*
X144061904Y-80573866D01*
X144061904Y-80573866D02*
X144014285Y-80526247D01*
X144014285Y-80526247D02*
X143919047Y-80478628D01*
X143919047Y-80478628D02*
X143728571Y-80431009D01*
X143728571Y-80431009D02*
X143633333Y-80383390D01*
X143633333Y-80383390D02*
X143585714Y-80335771D01*
X143585714Y-80335771D02*
X143538095Y-80240533D01*
X143538095Y-80240533D02*
X143538095Y-80145295D01*
X143538095Y-80145295D02*
X143585714Y-80050057D01*
X143585714Y-80050057D02*
X143633333Y-80002438D01*
X143633333Y-80002438D02*
X143728571Y-79954819D01*
X143728571Y-79954819D02*
X143966666Y-79954819D01*
X143966666Y-79954819D02*
X144109523Y-80002438D01*
X145061904Y-80954819D02*
X144490476Y-80954819D01*
X144776190Y-80954819D02*
X144776190Y-79954819D01*
X144776190Y-79954819D02*
X144680952Y-80097676D01*
X144680952Y-80097676D02*
X144585714Y-80192914D01*
X144585714Y-80192914D02*
X144490476Y-80240533D01*
X156031009Y-115295237D02*
X156031009Y-114961904D01*
X156554819Y-114819047D02*
X156554819Y-115295237D01*
X156554819Y-115295237D02*
X155554819Y-115295237D01*
X155554819Y-115295237D02*
X155554819Y-114819047D01*
X156554819Y-114485713D02*
X155888152Y-113961904D01*
X155888152Y-114485713D02*
X156554819Y-113961904D01*
X156507200Y-113628570D02*
X156554819Y-113485713D01*
X156554819Y-113485713D02*
X156554819Y-113247618D01*
X156554819Y-113247618D02*
X156507200Y-113152380D01*
X156507200Y-113152380D02*
X156459580Y-113104761D01*
X156459580Y-113104761D02*
X156364342Y-113057142D01*
X156364342Y-113057142D02*
X156269104Y-113057142D01*
X156269104Y-113057142D02*
X156173866Y-113104761D01*
X156173866Y-113104761D02*
X156126247Y-113152380D01*
X156126247Y-113152380D02*
X156078628Y-113247618D01*
X156078628Y-113247618D02*
X156031009Y-113438094D01*
X156031009Y-113438094D02*
X155983390Y-113533332D01*
X155983390Y-113533332D02*
X155935771Y-113580951D01*
X155935771Y-113580951D02*
X155840533Y-113628570D01*
X155840533Y-113628570D02*
X155745295Y-113628570D01*
X155745295Y-113628570D02*
X155650057Y-113580951D01*
X155650057Y-113580951D02*
X155602438Y-113533332D01*
X155602438Y-113533332D02*
X155554819Y-113438094D01*
X155554819Y-113438094D02*
X155554819Y-113199999D01*
X155554819Y-113199999D02*
X155602438Y-113057142D01*
X155888152Y-112723808D02*
X156554819Y-112533332D01*
X156554819Y-112533332D02*
X156078628Y-112342856D01*
X156078628Y-112342856D02*
X156554819Y-112152380D01*
X156554819Y-112152380D02*
X155888152Y-111961904D01*
X156554819Y-111057142D02*
X156554819Y-111628570D01*
X156554819Y-111342856D02*
X155554819Y-111342856D01*
X155554819Y-111342856D02*
X155697676Y-111438094D01*
X155697676Y-111438094D02*
X155792914Y-111533332D01*
X155792914Y-111533332D02*
X155840533Y-111628570D01*
X154438095Y-87632200D02*
X154580952Y-87679819D01*
X154580952Y-87679819D02*
X154819047Y-87679819D01*
X154819047Y-87679819D02*
X154914285Y-87632200D01*
X154914285Y-87632200D02*
X154961904Y-87584580D01*
X154961904Y-87584580D02*
X155009523Y-87489342D01*
X155009523Y-87489342D02*
X155009523Y-87394104D01*
X155009523Y-87394104D02*
X154961904Y-87298866D01*
X154961904Y-87298866D02*
X154914285Y-87251247D01*
X154914285Y-87251247D02*
X154819047Y-87203628D01*
X154819047Y-87203628D02*
X154628571Y-87156009D01*
X154628571Y-87156009D02*
X154533333Y-87108390D01*
X154533333Y-87108390D02*
X154485714Y-87060771D01*
X154485714Y-87060771D02*
X154438095Y-86965533D01*
X154438095Y-86965533D02*
X154438095Y-86870295D01*
X154438095Y-86870295D02*
X154485714Y-86775057D01*
X154485714Y-86775057D02*
X154533333Y-86727438D01*
X154533333Y-86727438D02*
X154628571Y-86679819D01*
X154628571Y-86679819D02*
X154866666Y-86679819D01*
X154866666Y-86679819D02*
X155009523Y-86727438D01*
X155390476Y-86775057D02*
X155438095Y-86727438D01*
X155438095Y-86727438D02*
X155533333Y-86679819D01*
X155533333Y-86679819D02*
X155771428Y-86679819D01*
X155771428Y-86679819D02*
X155866666Y-86727438D01*
X155866666Y-86727438D02*
X155914285Y-86775057D01*
X155914285Y-86775057D02*
X155961904Y-86870295D01*
X155961904Y-86870295D02*
X155961904Y-86965533D01*
X155961904Y-86965533D02*
X155914285Y-87108390D01*
X155914285Y-87108390D02*
X155342857Y-87679819D01*
X155342857Y-87679819D02*
X155961904Y-87679819D01*
X140054819Y-112899999D02*
X139054819Y-112899999D01*
X139054819Y-112899999D02*
X139054819Y-112519047D01*
X139054819Y-112519047D02*
X139102438Y-112423809D01*
X139102438Y-112423809D02*
X139150057Y-112376190D01*
X139150057Y-112376190D02*
X139245295Y-112328571D01*
X139245295Y-112328571D02*
X139388152Y-112328571D01*
X139388152Y-112328571D02*
X139483390Y-112376190D01*
X139483390Y-112376190D02*
X139531009Y-112423809D01*
X139531009Y-112423809D02*
X139578628Y-112519047D01*
X139578628Y-112519047D02*
X139578628Y-112899999D01*
X139054819Y-112042856D02*
X139054819Y-111471428D01*
X140054819Y-111757142D02*
X139054819Y-111757142D01*
X139054819Y-111280951D02*
X139054819Y-110709523D01*
X140054819Y-110995237D02*
X139054819Y-110995237D01*
X140054819Y-109852380D02*
X140054819Y-110423808D01*
X140054819Y-110138094D02*
X139054819Y-110138094D01*
X139054819Y-110138094D02*
X139197676Y-110233332D01*
X139197676Y-110233332D02*
X139292914Y-110328570D01*
X139292914Y-110328570D02*
X139340533Y-110423808D01*
X139854819Y-107709523D02*
X138854819Y-107709523D01*
X138854819Y-107709523D02*
X138854819Y-107328571D01*
X138854819Y-107328571D02*
X138902438Y-107233333D01*
X138902438Y-107233333D02*
X138950057Y-107185714D01*
X138950057Y-107185714D02*
X139045295Y-107138095D01*
X139045295Y-107138095D02*
X139188152Y-107138095D01*
X139188152Y-107138095D02*
X139283390Y-107185714D01*
X139283390Y-107185714D02*
X139331009Y-107233333D01*
X139331009Y-107233333D02*
X139378628Y-107328571D01*
X139378628Y-107328571D02*
X139378628Y-107709523D01*
X138854819Y-106804761D02*
X139854819Y-106566666D01*
X139854819Y-106566666D02*
X139140533Y-106376190D01*
X139140533Y-106376190D02*
X139854819Y-106185714D01*
X139854819Y-106185714D02*
X138854819Y-105947619D01*
X139854819Y-104995238D02*
X139378628Y-105328571D01*
X139854819Y-105566666D02*
X138854819Y-105566666D01*
X138854819Y-105566666D02*
X138854819Y-105185714D01*
X138854819Y-105185714D02*
X138902438Y-105090476D01*
X138902438Y-105090476D02*
X138950057Y-105042857D01*
X138950057Y-105042857D02*
X139045295Y-104995238D01*
X139045295Y-104995238D02*
X139188152Y-104995238D01*
X139188152Y-104995238D02*
X139283390Y-105042857D01*
X139283390Y-105042857D02*
X139331009Y-105090476D01*
X139331009Y-105090476D02*
X139378628Y-105185714D01*
X139378628Y-105185714D02*
X139378628Y-105566666D01*
X139854819Y-104042857D02*
X139854819Y-104614285D01*
X139854819Y-104328571D02*
X138854819Y-104328571D01*
X138854819Y-104328571D02*
X138997676Y-104423809D01*
X138997676Y-104423809D02*
X139092914Y-104519047D01*
X139092914Y-104519047D02*
X139140533Y-104614285D01*
X154438095Y-101632200D02*
X154580952Y-101679819D01*
X154580952Y-101679819D02*
X154819047Y-101679819D01*
X154819047Y-101679819D02*
X154914285Y-101632200D01*
X154914285Y-101632200D02*
X154961904Y-101584580D01*
X154961904Y-101584580D02*
X155009523Y-101489342D01*
X155009523Y-101489342D02*
X155009523Y-101394104D01*
X155009523Y-101394104D02*
X154961904Y-101298866D01*
X154961904Y-101298866D02*
X154914285Y-101251247D01*
X154914285Y-101251247D02*
X154819047Y-101203628D01*
X154819047Y-101203628D02*
X154628571Y-101156009D01*
X154628571Y-101156009D02*
X154533333Y-101108390D01*
X154533333Y-101108390D02*
X154485714Y-101060771D01*
X154485714Y-101060771D02*
X154438095Y-100965533D01*
X154438095Y-100965533D02*
X154438095Y-100870295D01*
X154438095Y-100870295D02*
X154485714Y-100775057D01*
X154485714Y-100775057D02*
X154533333Y-100727438D01*
X154533333Y-100727438D02*
X154628571Y-100679819D01*
X154628571Y-100679819D02*
X154866666Y-100679819D01*
X154866666Y-100679819D02*
X155009523Y-100727438D01*
X155342857Y-100679819D02*
X155961904Y-100679819D01*
X155961904Y-100679819D02*
X155628571Y-101060771D01*
X155628571Y-101060771D02*
X155771428Y-101060771D01*
X155771428Y-101060771D02*
X155866666Y-101108390D01*
X155866666Y-101108390D02*
X155914285Y-101156009D01*
X155914285Y-101156009D02*
X155961904Y-101251247D01*
X155961904Y-101251247D02*
X155961904Y-101489342D01*
X155961904Y-101489342D02*
X155914285Y-101584580D01*
X155914285Y-101584580D02*
X155866666Y-101632200D01*
X155866666Y-101632200D02*
X155771428Y-101679819D01*
X155771428Y-101679819D02*
X155485714Y-101679819D01*
X155485714Y-101679819D02*
X155390476Y-101632200D01*
X155390476Y-101632200D02*
X155342857Y-101584580D01*
X138042079Y-94286918D02*
X138547155Y-94791994D01*
X138547155Y-94791994D02*
X138614499Y-94926681D01*
X138614499Y-94926681D02*
X138614499Y-95061368D01*
X138614499Y-95061368D02*
X138547155Y-95196055D01*
X138547155Y-95196055D02*
X138479812Y-95263399D01*
X139018560Y-94657307D02*
X139153247Y-94589963D01*
X139153247Y-94589963D02*
X139321606Y-94421605D01*
X139321606Y-94421605D02*
X139355277Y-94320589D01*
X139355277Y-94320589D02*
X139355277Y-94253246D01*
X139355277Y-94253246D02*
X139321606Y-94152231D01*
X139321606Y-94152231D02*
X139254262Y-94084887D01*
X139254262Y-94084887D02*
X139153247Y-94051215D01*
X139153247Y-94051215D02*
X139085903Y-94051215D01*
X139085903Y-94051215D02*
X138984888Y-94084887D01*
X138984888Y-94084887D02*
X138816529Y-94185902D01*
X138816529Y-94185902D02*
X138715514Y-94219574D01*
X138715514Y-94219574D02*
X138648171Y-94219574D01*
X138648171Y-94219574D02*
X138547155Y-94185902D01*
X138547155Y-94185902D02*
X138479812Y-94118559D01*
X138479812Y-94118559D02*
X138446140Y-94017544D01*
X138446140Y-94017544D02*
X138446140Y-93950200D01*
X138446140Y-93950200D02*
X138479812Y-93849185D01*
X138479812Y-93849185D02*
X138648171Y-93680826D01*
X138648171Y-93680826D02*
X138782858Y-93613483D01*
X140129728Y-93613483D02*
X139725667Y-94017544D01*
X139927697Y-93815513D02*
X139220590Y-93108406D01*
X139220590Y-93108406D02*
X139254262Y-93276765D01*
X139254262Y-93276765D02*
X139254262Y-93411452D01*
X139254262Y-93411452D02*
X139220590Y-93512467D01*
D12*
%TO.C,S1*%
X141400000Y-83700000D02*
X141400000Y-83900000D01*
X141400000Y-85900000D02*
X141400000Y-86100000D01*
X142300000Y-81750000D02*
X146900000Y-81750000D01*
X146900000Y-88050000D02*
X142300000Y-88050000D01*
X147800000Y-83700000D02*
X147800000Y-86100000D01*
X146700000Y-87500000D02*
G75*
G02*
X146500000Y-87500000I-100000J0D01*
G01*
X146500000Y-87500000D02*
G75*
G02*
X146700000Y-87500000I100000J0D01*
G01*
%TO.C,S2*%
X152400000Y-90700000D02*
X152400000Y-90900000D01*
X152400000Y-92900000D02*
X152400000Y-93100000D01*
X153300000Y-88750000D02*
X157900000Y-88750000D01*
X157900000Y-95050000D02*
X153300000Y-95050000D01*
X158800000Y-90700000D02*
X158800000Y-93100000D01*
X157700000Y-94500000D02*
G75*
G02*
X157500000Y-94500000I-100000J0D01*
G01*
X157500000Y-94500000D02*
G75*
G02*
X157700000Y-94500000I100000J0D01*
G01*
%TO.C,S4*%
X141450000Y-115200000D02*
X141450000Y-110600000D01*
X143400000Y-109700000D02*
X145800000Y-109700000D01*
X143400000Y-116100000D02*
X143600000Y-116100000D01*
X145600000Y-116100000D02*
X145800000Y-116100000D01*
X147750000Y-110600000D02*
X147750000Y-115200000D01*
X147300000Y-110900000D02*
G75*
G02*
X147100000Y-110900000I-100000J0D01*
G01*
X147100000Y-110900000D02*
G75*
G02*
X147300000Y-110900000I100000J0D01*
G01*
%TO.C,S3*%
X152400000Y-104700000D02*
X152400000Y-104900000D01*
X152400000Y-106900000D02*
X152400000Y-107100000D01*
X153300000Y-102750000D02*
X157900000Y-102750000D01*
X157900000Y-109050000D02*
X153300000Y-109050000D01*
X158800000Y-104700000D02*
X158800000Y-107100000D01*
X157700000Y-108500000D02*
G75*
G02*
X157500000Y-108500000I-100000J0D01*
G01*
X157500000Y-108500000D02*
G75*
G02*
X157700000Y-108500000I100000J0D01*
G01*
D13*
%TO.C,JS1*%
X139498781Y-97556497D02*
X139498781Y-99536396D01*
X139852334Y-97202944D02*
X139498781Y-97556497D01*
X141902944Y-95152334D02*
X142256497Y-94798781D01*
X142256497Y-94798781D02*
X144236396Y-94798781D01*
X144943503Y-103001219D02*
X142963604Y-103001219D01*
X145332412Y-102612311D02*
X144943503Y-103001219D01*
X147276955Y-100667767D02*
X147701219Y-100243503D01*
X147701219Y-100243503D02*
X147701219Y-98263604D01*
D12*
X138873996Y-100013693D02*
G75*
G02*
X138673996Y-100013693I-100000J0D01*
G01*
X138673996Y-100013693D02*
G75*
G02*
X138873996Y-100013693I100000J0D01*
G01*
%TD*%
M02*
