%TF.GenerationSoftware,KiCad,Pcbnew,9.0.1*%
%TF.CreationDate,2025-08-22T17:09:06+10:00*%
%TF.ProjectId,XCS remote,58435320-7265-46d6-9f74-652e6b696361,rev?*%
%TF.SameCoordinates,Original*%
%TF.FileFunction,Copper,L1,Top*%
%TF.FilePolarity,Positive*%
%FSLAX46Y46*%
G04 Gerber Fmt 4.6, Leading zero omitted, Abs format (unit mm)*
G04 Created by KiCad (PCBNEW 9.0.1) date 2025-08-22 17:09:06*
%MOMM*%
%LPD*%
G01*
G04 APERTURE LIST*
G04 Aperture macros list*
%AMRoundRect*
0 Rectangle with rounded corners*
0 $1 Rounding radius*
0 $2 $3 $4 $5 $6 $7 $8 $9 X,Y pos of 4 corners*
0 Add a 4 corners polygon primitive as box body*
4,1,4,$2,$3,$4,$5,$6,$7,$8,$9,$2,$3,0*
0 Add four circle primitives for the rounded corners*
1,1,$1+$1,$2,$3*
1,1,$1+$1,$4,$5*
1,1,$1+$1,$6,$7*
1,1,$1+$1,$8,$9*
0 Add four rect primitives between the rounded corners*
20,1,$1+$1,$2,$3,$4,$5,0*
20,1,$1+$1,$4,$5,$6,$7,0*
20,1,$1+$1,$6,$7,$8,$9,0*
20,1,$1+$1,$8,$9,$2,$3,0*%
%AMRotRect*
0 Rectangle, with rotation*
0 The origin of the aperture is its center*
0 $1 length*
0 $2 width*
0 $3 Rotation angle, in degrees counterclockwise*
0 Add horizontal line*
21,1,$1,$2,0,0,$3*%
G04 Aperture macros list end*
%TA.AperFunction,Conductor*%
%ADD10C,0.200000*%
%TD*%
%TA.AperFunction,SMDPad,CuDef*%
%ADD11R,2.000000X1.300000*%
%TD*%
%TA.AperFunction,SMDPad,CuDef*%
%ADD12R,1.500000X1.300000*%
%TD*%
%TA.AperFunction,ComponentPad*%
%ADD13RoundRect,0.250000X0.550000X-0.550000X0.550000X0.550000X-0.550000X0.550000X-0.550000X-0.550000X0*%
%TD*%
%TA.AperFunction,ComponentPad*%
%ADD14C,1.600000*%
%TD*%
%TA.AperFunction,SMDPad,CuDef*%
%ADD15R,1.300000X2.000000*%
%TD*%
%TA.AperFunction,SMDPad,CuDef*%
%ADD16R,1.300000X1.500000*%
%TD*%
%TA.AperFunction,SMDPad,CuDef*%
%ADD17RotRect,2.000000X1.000000X45.000000*%
%TD*%
%TA.AperFunction,SMDPad,CuDef*%
%ADD18RotRect,2.000000X1.800000X45.000000*%
%TD*%
%TA.AperFunction,ViaPad*%
%ADD19C,0.600000*%
%TD*%
%TA.AperFunction,Conductor*%
%ADD20C,0.300000*%
%TD*%
G04 APERTURE END LIST*
D10*
%TO.N,Net-(ESP32C3-GPIO2)*%
X143636855Y-100936873D02*
X143618500Y-97900000D01*
%TD*%
D11*
%TO.P,S1,1*%
%TO.N,Net-(ESP32C3-GND)*%
X148100000Y-87150000D03*
%TO.P,S1,2*%
%TO.N,unconnected-(S1-Pad2)*%
X141100000Y-87150000D03*
%TO.P,S1,3*%
%TO.N,Net-(ESP32C3-GPIO5)*%
X148100000Y-82650000D03*
%TO.P,S1,4*%
%TO.N,unconnected-(S1-Pad4)*%
X141100000Y-82650000D03*
D12*
%TO.P,S1,GND*%
%TO.N,unconnected-(S1-PadGND)*%
X140850000Y-84900000D03*
%TD*%
D13*
%TO.P,ExSw1,1,Pin_1*%
%TO.N,Net-(ESP32C3-GND)*%
X158100000Y-115700000D03*
D14*
%TO.P,ExSw1,2,Pin_2*%
%TO.N,Net-(ESP32C3-GPIO10)*%
X158100000Y-113160000D03*
%TO.P,ExSw1,3,Pin_3*%
%TO.N,Net-(ESP32C3-GPIO20)*%
X158100000Y-110620000D03*
%TD*%
D11*
%TO.P,S2,1*%
%TO.N,unconnected-(S2-Pad1)*%
X159100000Y-94150000D03*
%TO.P,S2,2*%
%TO.N,unconnected-(S2-Pad2)*%
X152100000Y-94150000D03*
%TO.P,S2,3*%
%TO.N,Net-(ESP32C3-GPIO8)*%
X159100000Y-89650000D03*
%TO.P,S2,4*%
%TO.N,Net-(ESP32C3-GND)*%
X152100000Y-89650000D03*
D12*
%TO.P,S2,GND*%
%TO.N,unconnected-(S2-PadGND)*%
X151850000Y-91900000D03*
%TD*%
D15*
%TO.P,S4,1*%
%TO.N,Net-(PTT1-Pin_1)*%
X146850000Y-109400000D03*
%TO.P,S4,2*%
%TO.N,unconnected-(S4-Pad2)*%
X146850000Y-116400000D03*
%TO.P,S4,3*%
%TO.N,Net-(PTT1-Pin_2)*%
X142350000Y-109400000D03*
%TO.P,S4,4*%
%TO.N,unconnected-(S4-Pad4)*%
X142350000Y-116400000D03*
D16*
%TO.P,S4,GND*%
%TO.N,unconnected-(S4-PadGND)*%
X144600000Y-116650000D03*
%TD*%
D13*
%TO.P,PTT1,1,Pin_1*%
%TO.N,Net-(PTT1-Pin_1)*%
X137300000Y-112650000D03*
D14*
%TO.P,PTT1,2,Pin_2*%
%TO.N,Net-(PTT1-Pin_2)*%
X137300000Y-110110000D03*
%TD*%
D13*
%TO.P,PWR1,1,Pin_1*%
%TO.N,Net-(ESP32C3-GND)*%
X137300000Y-107250000D03*
D14*
%TO.P,PWR1,2,Pin_2*%
%TO.N,Net-(PWR1-Pin_2)*%
X137300000Y-104710000D03*
%TD*%
D11*
%TO.P,S3,1*%
%TO.N,Net-(ESP32C3-GND)*%
X159100000Y-108150000D03*
%TO.P,S3,2*%
%TO.N,unconnected-(S3-Pad2)*%
X152100000Y-108150000D03*
%TO.P,S3,3*%
%TO.N,Net-(ESP32C3-GPIO21)*%
X159100000Y-103650000D03*
%TO.P,S3,4*%
%TO.N,unconnected-(S3-Pad4)*%
X152100000Y-103650000D03*
D12*
%TO.P,S3,GND*%
%TO.N,unconnected-(S3-PadGND)*%
X151850000Y-105900000D03*
%TD*%
D17*
%TO.P,JS1,1*%
%TO.N,Net-(ESP32C3-GPIO0)*%
X139763946Y-100720800D03*
%TO.P,JS1,2*%
%TO.N,Net-(ESP32C3-GPIO1)*%
X140771573Y-101728427D03*
%TO.P,JS1,3*%
%TO.N,Net-(ESP32C3-GPIO2)*%
X141779200Y-102736054D03*
%TO.P,JS1,4*%
%TO.N,Net-(ESP32C3-GPIO4)*%
X145420800Y-95063946D03*
%TO.P,JS1,5*%
%TO.N,Net-(ESP32C3-GND)*%
X146428427Y-96071573D03*
%TO.P,JS1,6*%
%TO.N,Net-(ESP32C3-GPIO3)*%
X147436054Y-97079200D03*
D18*
%TO.P,JS1,G1,GND*%
%TO.N,unconnected-(JS1-GND-PadG1)*%
X140736218Y-96036218D03*
%TO.P,JS1,G2,GND__1*%
%TO.N,unconnected-(JS1-GND__1-PadG2)*%
X146463782Y-101763782D03*
%TD*%
D19*
%TO.N,Net-(PWR1-Pin_2)*%
X136145000Y-83534200D03*
%TO.N,Net-(ESP32C3-GND)*%
X146450000Y-87080000D03*
%TO.N,Net-(ESP32C3-GPIO3)*%
X143973400Y-92400000D03*
%TO.N,Net-(ESP32C3-GPIO4)*%
X145420800Y-90090800D03*
%TO.N,Net-(ESP32C3-GPIO2)*%
X143618500Y-97900000D03*
%TO.N,Net-(ESP32C3-GPIO21)*%
X159200000Y-102000000D03*
%TO.N,Net-(ESP32C3-GPIO1)*%
X141000000Y-97900000D03*
%TO.N,Net-(ESP32C3-GPIO8)*%
X159100000Y-89650000D03*
%TO.N,Net-(ESP32C3-GPIO0)*%
X140100000Y-100200000D03*
%TO.N,Net-(ESP32C3-GPIO5)*%
X150900000Y-82260000D03*
%TO.N,Net-(ESP32C3-GPIO10)*%
X161355000Y-95000000D03*
%TD*%
D10*
%TO.N,Net-(PTT1-Pin_2)*%
X137891700Y-110701700D02*
X137300000Y-110110000D01*
X142350000Y-110701700D02*
X137891700Y-110701700D01*
X142350000Y-109400000D02*
X142350000Y-110701700D01*
%TO.N,Net-(PTT1-Pin_1)*%
X137300000Y-112650000D02*
X144901700Y-112650000D01*
X146850000Y-109400000D02*
X146850000Y-110701700D01*
X144901700Y-112650000D02*
X146850000Y-110701700D01*
D20*
%TO.N,Net-(PWR1-Pin_2)*%
X136200000Y-103910000D02*
X136200000Y-83589200D01*
X136200000Y-83589200D02*
X136145000Y-83534200D01*
X137000000Y-104710000D02*
X136200000Y-103910000D01*
D10*
%TO.N,Net-(ESP32C3-GND)*%
X150798300Y-89650000D02*
X149401700Y-88253400D01*
X152100000Y-89650000D02*
X150798300Y-89650000D01*
X156300000Y-113900000D02*
X158100000Y-115700000D01*
X156300000Y-108150000D02*
X156300000Y-113900000D01*
X147449200Y-87150000D02*
X146798300Y-87150000D01*
X147449200Y-87150000D02*
X147449200Y-95050800D01*
X157798300Y-108150000D02*
X156984500Y-108150000D01*
X153700000Y-105550000D02*
X156300000Y-108150000D01*
X152100000Y-89650000D02*
X153700000Y-89650000D01*
X149401700Y-88253400D02*
X149401700Y-87150000D01*
X146728300Y-87080000D02*
X146798300Y-87150000D01*
X146450000Y-87080000D02*
X146589200Y-87080000D01*
X148100000Y-87150000D02*
X149401700Y-87150000D01*
X153700000Y-89650000D02*
X153700000Y-105550000D01*
X146589200Y-87080000D02*
X146450000Y-87080000D01*
X146450000Y-87080000D02*
X146728300Y-87080000D01*
X147449200Y-95050800D02*
X146428400Y-96071600D01*
X156984500Y-108150000D02*
X156300000Y-108150000D01*
X159100000Y-108150000D02*
X157798300Y-108150000D01*
X148100000Y-87150000D02*
X147449200Y-87150000D01*
%TO.N,Net-(ESP32C3-GPIO3)*%
X143973400Y-95973400D02*
X146257650Y-98257650D01*
X143973400Y-92400000D02*
X143973400Y-95973400D01*
X146257650Y-98257650D02*
X147436100Y-97079200D01*
%TO.N,Net-(ESP32C3-GPIO4)*%
X145420800Y-95063900D02*
X146341300Y-94143400D01*
X145420800Y-93222900D02*
X145420800Y-90090800D01*
X146341300Y-94143400D02*
X145420800Y-93222900D01*
%TO.N,Net-(ESP32C3-GPIO2)*%
X141837628Y-102736100D02*
X141779200Y-102736100D01*
X143636855Y-100936873D02*
X141837628Y-102736100D01*
%TO.N,Net-(ESP32C3-GPIO21)*%
X159100000Y-102100000D02*
X159100000Y-103650000D01*
X159200000Y-102000000D02*
X159100000Y-102100000D01*
%TO.N,Net-(ESP32C3-GPIO1)*%
X141478680Y-98378680D02*
X141000000Y-97900000D01*
X140771573Y-101728427D02*
X141478680Y-101021320D01*
X141478680Y-101021320D02*
X141478680Y-98378680D01*
%TO.N,Net-(ESP32C3-GPIO0)*%
X140100000Y-100200000D02*
X140100000Y-100384700D01*
X140100000Y-100384700D02*
X139763900Y-100720800D01*
%TO.N,Net-(ESP32C3-GPIO5)*%
X150510000Y-82650000D02*
X148100000Y-82650000D01*
X150900000Y-82260000D02*
X150510000Y-82650000D01*
%TO.N,Net-(ESP32C3-GPIO10)*%
X161355000Y-95000000D02*
X161355000Y-109905000D01*
X161355000Y-109905000D02*
X158100000Y-113160000D01*
%TD*%
M02*
